<?xml version="1.0" encoding="UTF-8" standalone="no"?>
<svg
   viewBox="0 0 8660.2 6920.8"
   version="1.1"
   id="svg46"
   sodipodi:docname="cloud2.svg"
   inkscape:version="1.1.2 (b8e25be833, 2022-02-05)"
   xmlns:inkscape="http://www.inkscape.org/namespaces/inkscape"
   xmlns:sodipodi="http://sodipodi.sourceforge.net/DTD/sodipodi-0.dtd"
   xmlns="http://www.w3.org/2000/svg"
   xmlns:svg="http://www.w3.org/2000/svg">
  <sodipodi:namedview
     id="namedview48"
     pagecolor="#ffffff"
     bordercolor="#666666"
     borderopacity="1.0"
     inkscape:pageshadow="2"
     inkscape:pageopacity="0.0"
     inkscape:pagecheckerboard="0"
     showgrid="false"
     inkscape:zoom="0.11674951"
     inkscape:cx="2642.4094"
     inkscape:cy="3460.4"
     inkscape:window-width="1920"
     inkscape:window-height="1017"
     inkscape:window-x="-8"
     inkscape:window-y="-8"
     inkscape:window-maximized="1"
     inkscape:current-layer="svg46" />
  <defs
     id="defs38">
    <linearGradient
       id="a">
      <stop
         stop-color="#7abaf9"
         offset="1"
         id="stop33" />
      <stop
         stop-color="#854506"
         offset="1"
         id="stop35" />
    </linearGradient>
  </defs>
  <g
     fill="url(#a)"
     stroke-width="2.587"
     id="g44">
    <path
       d="m4626.8 336.39c-877.09 0-1618 630.42-1848.5 1491.3-95.963-61.159-206.36-96.347-324.4-96.347-365.03 0-661.22 333.83-661.22 745.25 0 4.1909-0.061523 8.1787 0 12.352-109.35-25.249-223.99-39.527-342.66-39.527-723.54 0-1310.7 501.15-1310.7 1118.3 0 617.13 587.2 1118.3 1310.7 1118.3 286.58 0 551.37-79.21 767.16-212.46 128.88 434.59 492.56 748.54 921.32 748.54 290.54 0 551.05-144.18 729.16-372.21 172.79 101.87 375.99 160.58 593.27 160.58 295.63 0 565.42-108.39 767.89-286.57 272.83 319.15 674.02 521.26 1121.5 521.26 548.98 0 1028.8-304.44 1286.6-755.95 38.819 6.4116 78.646 9.8818 119.09 9.8818 436.73 0 790.54-387.11 790.54-864.65s-353.81-865.48-790.54-865.48c-78.149 0-153.71 13.119-225.03 36.233-235.33-312.66-587.19-529.42-989.27-582.2-82.248-1056.2-908.29-1886.6-1915-1886.6z"
       stroke="#000"
       id="path40" />
    <path
       d="m4584.9 289.45c-801.69 2.7026-1585.5 606.28-1834.6 1468.3-362.6-207.25-849.66 32.502-967.35 468.56-19.28 66.124-31.937 135.45-35.07 205.05-568.9-112.92-1241.7 96.916-1546.7 681.84-204.01 381.62-104.86 899.27 185.58 1187.5 470.99 504.86 1242.2 558.19 1806.8 258.57 183.2 551.45 777.6 863.42 1272 660.43 157.46-57.418 300.93-171.18 415-298.1 424.05 230.55 960.88 189.58 1343.6-122.7 613.92 694.92 1733.7 666.63 2311-69.996 68.942-53.065 88.632-208.28 189.23-172.93 466.31 36.469 905.39-433.97 867.98-965.12-15.253-547.06-516.99-966.2-987.81-853.95-97.106 45.35-134.3-116.46-214.07-157.28-225.78-223.56-525.46-345.38-806.61-406.8-85.687-953.94-817.77-1734.4-1650.2-1858.3-115.05-19.637-232.1-28.073-348.75-25.036z"
       stroke="#a3ced5"
       id="path42" />
  </g>
  <path
     style="fill:#f5f5f5;stroke-width:8.56535;fill-opacity:1"
     d="m 6197.3308,5288.3527 c -39.8765,-3.8389 -111.183,-15.253 -158.4589,-25.3647 -290.9741,-62.2357 -529.4421,-189.8474 -736.9224,-394.3505 l -77.0881,-75.982 -68.751,49.1537 c -348.4445,249.1215 -841.7672,291.2726 -1213.6654,103.6996 -59.164,-29.8403 -69.4111,-30.4222 -89.5587,-5.0854 -35.2321,44.3065 -148.9467,140.7866 -221.1794,187.6575 -87.975,57.086 -216.8072,110.3063 -316.9178,130.9181 -91.9884,18.9394 -245.8031,18.9901 -338.4958,0.1114 -336.4382,-68.5223 -626.1452,-316.2415 -757.8232,-647.9904 l -22.6221,-56.994 -74.3651,34.4052 c -360.3338,166.7091 -786.0306,194.0089 -1153.59874,73.98 C 859.13429,4626.9991 682.31176,4537.0643 587.68239,4469.1345 490.24769,4399.1908 353.52869,4265.0144 294.4811,4181.3859 78.644115,3875.698 38.163971,3458.0044 193.7393,3141.8835 c 138.23842,-280.8933 392.3149,-511.7579 692.28695,-629.0411 180.81845,-70.6965 353.11845,-101.7892 562.61655,-101.5277 120.81,0.1508 207.624,6.9427 278.7332,21.8067 22.2622,4.6535 23.0214,3.4534 28.4701,-45.0004 32.8708,-292.3094 189.385,-521.494 434.6187,-636.4144 95.9783,-44.9769 163.2318,-59.7709 272.4141,-59.9241 97.4178,-0.137 162.7347,12.8385 238.2569,47.3294 25.2331,11.5239 49.0266,19.0069 52.8744,16.6288 3.8478,-2.3781 9.6999,-16.8064 13.0046,-32.063 16.9769,-78.3763 109.9649,-292.2383 180.2685,-414.5971 207.2265,-360.6643 507.6664,-645.70589 868.983,-824.44538 260.468,-128.85077 462.4703,-178.87426 753.3461,-186.55724 324.1491,-8.56183 597.5247,49.75223 871.1796,185.83231 602.3369,299.52346 1041.618,923.88041 1126.7926,1601.52781 l 11.2761,89.7122 29.6415,7.6908 c 401.7072,104.2274 673.3402,261.7589 884.0467,512.6963 22.5701,26.8795 49.2761,49.7518 59.9574,51.3506 10.593,1.5855 40.4593,-1.9413 66.3694,-7.8374 74.0154,-16.8428 223.5395,-13.7462 307.4403,6.3669 232.9274,55.8387 446.4224,231.3475 561.2658,461.4021 70.1405,140.506 99.1781,269.2284 99.1781,439.6532 0,228.8824 -76.0012,435.8986 -225.9865,615.554 -154.1035,184.5882 -403.5677,302.0313 -612.3131,288.2654 -83.9539,-5.5364 -100.8116,3.27 -147.1543,76.8733 -81.7055,129.7674 -234.298,287.0795 -380.7189,392.4942 -93.579,67.3715 -288.0142,165.7599 -396.8808,200.8303 -200.5712,64.6122 -416.7983,88.0386 -626.3755,67.8627 z"
     id="path241" />
  <path
     style="fill:#f5f5f5;fill-opacity:1;stroke-width:8.56535"
     d="m 6158.4842,5280.1442 c -352.1916,-60.3685 -582.1377,-168.5476 -821.1079,-386.2936 -53.5348,-48.7802 -102.078,-92.1471 -107.8739,-96.3711 -7.0443,-5.1338 -25.8881,3.6518 -56.8401,26.5005 -332.4453,245.4115 -807.6644,303.4334 -1168.3628,142.6514 -37.6875,-16.7992 -83.0212,-34.7938 -100.7417,-39.9879 -32.1457,-9.4223 -32.3403,-9.3254 -85.6534,42.6512 -174.6411,170.2627 -376.0473,272.7268 -579.6081,294.8719 -414.598,45.1034 -837.1689,-224.3946 -1011.8314,-645.3035 -15.1502,-36.5098 -30.3269,-66.3814 -33.7259,-66.3814 -3.399,0 -39.0585,15.1899 -79.2434,33.7554 -389.64,180.0141 -864.9614,193.1243 -1237.86389,34.1421 -338.05597,-144.1258 -584.08308,-379.655 -696.80825,-667.0755 -50.71814,-129.3184 -70.38092,-238.3809 -70.33423,-390.1195 0.0675,-219.2881 46.3718,-370.6979 170.2652,-556.7476 228.26632,-342.7856 624.97733,-563.2535 1053.15697,-585.2806 112.172,-5.7706 284.8211,-0.5422 373.2946,11.3036 l 47.8114,6.4017 10.5313,-75.9569 c 11.4551,-82.6212 47.3185,-199.4411 83.1066,-270.7079 71.7526,-142.8851 199.5208,-266.3282 348.2649,-336.4759 91.8452,-43.3142 150.8387,-55.9229 263.3343,-56.2824 109.0878,-0.3487 156.2724,7.7635 233.0046,40.0597 28.4127,11.9587 56.4492,19.9052 62.3032,17.6588 5.8539,-2.2464 15.3067,-22.7211 21.0059,-45.4992 14.9013,-59.5548 88.3982,-232.1995 143.4307,-336.9194 285.9219,-544.07314 818.8354,-947.6771 1386.0877,-1049.75844 102.7196,-18.48517 418.3944,-26.43087 531.4961,-13.37803 423.5363,48.87949 807.6158,238.39049 1121.6158,553.42333 231.074,231.83414 416.8378,532.85284 516.2382,836.53224 49.3648,150.815 64.9835,217.2445 86.282,366.974 l 15.2299,107.0668 38.0215,11.272 c 162.3904,48.143 294.3882,96.2965 389.2007,141.9824 191.6906,92.3672 301.6957,173.0017 451.6953,331.0962 l 91.0258,95.9379 32.7092,-6.1397 c 130.261,-24.4505 287.3334,-19.306 392.4539,12.8539 32.9765,10.0887 91.7302,35.1076 130.5636,55.5975 258.1877,136.2296 436.5769,397.1695 473.6756,692.872 24.1259,192.2991 -6.7895,380.9978 -89.9292,548.9041 -108.7733,219.6745 -278.8351,373.5639 -494.9311,447.8645 -76.8386,26.4196 -102.4549,30.9609 -203.5339,36.0828 -63.5977,3.2228 -122.4733,8.8436 -130.8347,12.4907 -8.3613,3.6471 -39.1966,41.8198 -68.5228,84.8282 -65.2778,95.7334 -223.9908,261.5627 -326.0632,340.683 -85.5205,66.2901 -211.5451,139.5732 -323.6102,188.1784 -189.542,82.2089 -327.7826,110.5786 -559.9686,114.9166 -94.2188,1.7603 -192.5062,-0.4334 -218.4163,-4.8743 z"
     id="path1243" />
  <path
     style="fill:#f5f5f5;fill-opacity:1;stroke-width:8.56535"
     d="m 6179.8975,5283.7398 c -92.1568,-13.7903 -218.4221,-42.89 -299.4925,-69.0224 -221.7268,-71.472 -387.6012,-172.5291 -580.894,-353.9029 l -75.244,-70.6043 -84.0261,56.6576 c -210.7852,142.1295 -427.0131,206.8076 -690.5434,206.5556 -187.3669,-0.1793 -318.2918,-27.2999 -477.5298,-98.9185 -41.2271,-18.5424 -81.8595,-33.7133 -90.2941,-33.7133 -8.4345,0 -32.5193,17.6739 -53.5216,39.2753 -166.1967,170.9371 -381.0222,281.3592 -592.0451,304.316 -410.2953,44.6354 -826.8562,-218.5268 -1005.1027,-634.9731 -17.0009,-39.7202 -32.2313,-73.539 -33.8452,-75.153 -1.6141,-1.614 -47.2127,16.3435 -101.3302,39.9057 -395.5792,172.2303 -840.5162,183.2863 -1212.97116,30.1404 C 785.5205,4584.1976 653.25207,4510.4738 573.87822,4451.9723 476.09879,4379.9052 320.67077,4216.9222 266.62014,4129.7791 115.27843,3885.7785 67.113345,3579.4361 137.13554,3306.2238 c 9.65902,-37.6876 40.45862,-114.7757 68.44356,-171.307 119.72276,-241.8472 324.48707,-443.4347 578.15011,-569.1805 241.20289,-119.569 471.09559,-161.4722 785.77829,-143.2261 67.1816,3.8954 135.5673,7.7498 151.968,8.5654 l 29.8195,1.4828 14.6892,-85.3469 c 32.7534,-190.303 107.2953,-337.1113 230.9049,-454.761 67.2609,-64.018 117.7105,-98.8507 198.0311,-136.7299 91.8452,-43.3142 150.8387,-55.9229 263.3343,-56.2824 109.0695,-0.3487 152.8199,7.1561 236.121,40.5039 31.9694,12.7982 59.2869,19.2521 63.2907,14.9528 3.8742,-4.1603 13.4327,-29.9767 21.241,-57.3698 36.7793,-129.0294 145.8544,-352.0819 244.8111,-500.6253 88.8722,-133.4055 144.4744,-201.80858 254.7048,-313.34335 170.6422,-172.66142 333.1378,-290.31861 546.0041,-395.34175 283.5676,-139.90543 478.1387,-184.1449 809.8941,-184.1449 300.0528,0 530.1169,52.17018 791.8257,179.55734 420.7857,204.81801 758.8583,559.34476 970.6781,1017.92156 77.2427,167.2255 151.6958,432.7999 168.8077,602.1366 3.1439,31.112 8.2182,60.5388 11.2762,65.3928 3.0579,4.854 53.145,22.8963 111.3047,40.0941 141.3021,41.783 240.749,81.4409 370.3251,147.6801 140.0133,71.5747 261.9624,164.1479 387.2779,293.9875 100.6699,104.3043 101.1458,104.6582 132.7629,98.7235 129.2551,-24.2622 286.6932,-19.019 391.4754,13.0374 74.6218,22.8294 185.4293,80.74 250.9317,131.143 76.4417,58.8204 181.346,175.2117 227.8036,252.7479 23.0465,38.4638 55.2171,105.3808 71.4901,148.7045 48.6597,129.5468 57.1057,181.5522 56.7374,349.3589 -0.2937,133.8767 -2.719,158.8422 -22.6968,233.6399 -25.5206,95.5499 -81.1744,218.5717 -135.0212,298.4617 -83.7643,124.2772 -228.181,246.5478 -362.2527,306.7017 -90.0218,40.39 -154.1643,54.1899 -278.311,59.8766 l -114.2306,5.2325 -31.3803,34.862 c -17.2591,19.174 -53.8405,65.9858 -81.2921,104.026 -54.3714,75.3435 -200.0136,223.7447 -288.4192,293.8827 -100.1818,79.4809 -293.3607,183.6646 -423.9847,228.6601 -155.149,53.4434 -269.5005,71.8143 -466.8114,74.9947 -91.8633,1.4806 -178.5875,0.9618 -192.7203,-1.1531 z"
     id="path1282" />
  <path
     style="mix-blend-mode:normal;fill:#f5f5f5;fill-opacity:1;stroke-width:8.56535"
     d="m 6111.3748,5273.0196 c -332.4276,-61.0402 -567.2404,-180.3545 -813.2718,-413.2438 l -73.2604,-69.347 -83.8722,56.3727 c -213.2242,143.3136 -418.8956,205.4402 -682.7075,206.2237 -200.4468,0.5953 -328.4534,-25.8124 -496.6357,-102.4556 -35.939,-16.3779 -72.0069,-29.778 -80.151,-29.778 -8.1441,0 -35.875,21.4717 -61.6242,47.7149 -157.3674,160.3859 -372.4685,270.8683 -575.5447,295.6169 -278.9992,34.0012 -560.0808,-72.1185 -782.2557,-295.3337 -99.887,-100.3546 -174.4432,-208.4136 -226.8435,-328.7787 -19.9326,-45.7856 -37.0502,-84.2581 -38.039,-85.4943 -0.9889,-1.2362 -46.7863,17.0562 -101.7721,40.6498 -368.6692,158.1907 -787.6924,179.8174 -1135.59279,58.6104 -210.54825,-73.354 -380.01339,-179.8642 -535.81956,-336.7668 -163.25793,-164.4067 -244.55901,-308.3463 -291.49936,-516.0853 -53.316288,-235.9563 -30.62402,-454.2986 68.3279,-657.4426 120.35561,-247.085 324.95474,-449.8694 582.91602,-577.7459 241.20289,-119.569 471.09559,-161.4722 785.77829,-143.2261 67.1816,3.8954 135.5673,7.7498 151.968,8.5654 l 29.8195,1.4828 14.2966,-83.0504 c 48.1479,-279.6971 195.5218,-483.5241 429.3286,-593.7874 91.8452,-43.3142 150.8387,-55.9229 263.3343,-56.2824 108.2539,-0.3461 146.3533,6.0371 234.7697,39.3337 66.028,24.8652 66.8941,24.5074 82.9417,-34.2679 34.1353,-125.0231 150.6981,-362.6501 253.13,-516.0352 234.6088,-351.31154 559.8324,-615.58888 950.3368,-772.24558 190.2929,-76.33888 335.3128,-103.47118 586.4733,-109.72538 345.5779,-8.6053 582.0744,40.06558 860.241,177.03727 503.1568,247.75872 879.2824,693.26469 1060.8522,1256.53769 33.092,102.6592 69.8334,271.7436 79.0921,363.9825 3.1433,31.3156 8.1142,60.5843 11.0464,65.0416 2.932,4.4573 53.3974,22.5235 112.1451,40.1469 143.7731,43.1299 240.5671,81.8228 369.256,147.6085 137.1383,70.1051 258.8344,162.049 388.6806,293.6564 88.7703,89.9742 105.338,103.2073 124.1976,99.2001 61.4057,-13.0472 183.6352,-19.0669 256.7598,-12.6452 178.7013,15.6933 325.6952,86.7859 472.9488,228.7387 126.3353,121.7876 214.7657,274.8443 257.9616,446.4835 15.7604,62.6248 18.505,97.1747 18.1108,227.9865 -0.4172,138.3032 -2.7698,162.7982 -22.8548,237.9226 -25.5532,95.5771 -81.2187,218.6044 -135.0434,298.4617 -76.2382,113.1111 -211.7469,233.1422 -331.1502,293.3267 -95.1435,47.9566 -170.3522,66.3185 -299.6085,73.1483 -84.1498,4.4464 -126.0446,10.1479 -136.1414,18.5275 -8.0218,6.6574 -46.3481,54.5326 -85.1696,106.3891 -74.7722,99.8782 -209.764,238.9161 -306.2467,315.4256 -120.6323,95.6599 -344.2963,208.1224 -496.2294,249.5135 -145.7309,39.7015 -216.7111,49.1039 -396.4189,52.5116 -139.7407,2.6498 -187.09,0.3503 -256.9603,-12.4793 z"
     id="path1321" />
  <path
     style="fill:#f5f5f5;fill-opacity:1;stroke-width:8.56535"
     d="m 6107.0921,5271.6682 c -320.7364,-57.2381 -567.8854,-182.13 -802.738,-405.6476 l -78.9661,-75.155 -79.0363,52.8666 c -143.8574,96.2246 -280.0129,154.1188 -446.6453,189.9165 -70.9639,15.2452 -116.0707,18.8125 -241.4435,19.0945 -207.4137,0.4668 -301.1238,-18.3755 -489.9294,-98.5098 -43.336,-18.393 -83.0448,-33.4418 -88.2417,-33.4418 -5.197,0 -37.1923,26.2069 -71.1009,58.2377 -220.3322,208.1309 -468.951,307.8328 -721.1835,289.2114 -237.0963,-17.5039 -443.3765,-116.2178 -625.7558,-299.451 -99.887,-100.3546 -174.4432,-208.4136 -226.8435,-328.7787 -19.9326,-45.7856 -36.909,-84.117 -37.7254,-85.1806 -0.8162,-1.0637 -46.9087,17.3163 -102.4275,40.8445 -202.9987,86.0284 -384.0328,126.1199 -604.6849,133.9125 -323.2,11.4141 -605.29908,-69.2102 -882.15402,-252.121 C 505.95935,4409.9079 327.08126,4228.1106 266.88093,4130.5607 113.58107,3882.1501 66.101906,3581.2881 136.79198,3306.2238 c 9.68549,-37.6876 38.34885,-110.9213 63.69637,-162.7416 174.71474,-357.1861 516.75768,-613.9591 930.13735,-698.2577 138.3048,-28.2039 376.26,-34.3618 590.2995,-15.276 l 29.2692,2.6099 14.8762,-83.1383 c 33.9123,-189.5267 94.5432,-314.2581 212.999,-438.1875 64.8687,-67.866 130.0637,-114.5869 217.305,-155.7278 91.3836,-43.0943 150.5233,-55.7075 262.8799,-56.0666 104.4253,-0.3341 151.851,7.1188 222.4944,34.9639 50.1126,19.7525 76.2779,21.8429 81.4189,6.5046 112.8447,-336.6791 287.3575,-627.8213 514.9251,-859.05705 261.806,-266.02599 631.9942,-476.40758 955.7842,-543.18147 181.051,-37.33742 455.5481,-46.16635 650.726,-20.92997 734.8649,95.01764 1379.2543,675.85425 1614.5202,1455.28849 24.0814,79.7814 59.4832,250.6264 67.8588,327.4777 3.2,29.3627 10.1458,58.6905 15.4351,65.1728 5.2893,6.4824 77.0691,33.6885 159.5105,60.4582 313.0317,101.6445 475.8114,198.5413 695.4829,413.995 87.1298,85.4569 121.2957,113.8149 132.7629,110.1944 41.4034,-13.0722 178.6509,-20.3124 256.1243,-13.5113 192.0672,16.8608 349.5632,96.6643 500.4864,253.5977 115.288,119.879 192.8523,259.8431 232.5707,419.6714 15.4915,62.3382 18.9752,101.4392 19.3647,217.3417 0.2955,87.9188 -4.015,163.9867 -11.406,201.2856 -21.9143,110.5899 -77.9725,244.275 -145.4643,346.8965 -45.2586,68.8159 -155.5922,180.6069 -226.4102,229.4008 -138.5309,95.4486 -235.1883,128.4344 -406.9873,138.8908 -72.9156,4.438 -127.7314,11.6855 -135.188,17.8738 -6.8982,5.725 -44.7319,53.1932 -84.0749,105.485 -80.481,106.9694 -226.4175,255.6623 -320.0661,326.1116 -136.8876,102.9768 -354.9573,208.3866 -514.5897,248.7404 -193.6515,48.9537 -449.9866,61.0492 -626.441,29.5594 z"
     id="path1360" />
</svg>
