<?xml version="1.0" encoding="UTF-8"?>
<svg width="793.7" height="793.7" version="1.1" viewBox="0 0 210 210" xmlns="http://www.w3.org/2000/svg">
 <path d="m6.6146 4.948v59.253l59.253-59.253zm198.44 139.18-59.253 59.253h59.253z" fill="#02baf6" style="paint-order:fill markers stroke"/>
 <g transform="matrix(.42262 0 0 .42262 -7.8006 -123.24)" fill="#02baf6">
  <path d="m354.76 406.72c-6.6669-0.15369-13.351 0.95747-19.563 3.3965-14.198 5.575-25.562 18.053-29.504 32.788-2.1937 8.1986-2.1542 16.987 0.11727 25.165 0.60787 2.1884 1.3858 4.3266 2.3004 6.4051-35.133 3.2743-71.055-1.8659-103.77-15.106-23.438-9.4851-45.227-23.032-64.105-39.851-5.5924 12.115-8.0069 25.68-6.9328 38.981 1.6313 20.202 11.5 39.62 26.856 52.847-5.7941-3.0122-12.964-3.2341-18.931-0.58187s-10.609 8.1238-12.255 14.443c-1.6035 6.153-0.41328 12.825 2.4583 18.498 2.8716 5.6732 7.324 10.423 12.269 14.421 8.3078 6.7158 18.17 11.493 28.588 13.857-5.6152-0.97812-11.626 0.5945-16.044 4.1949-4.4187 3.6004-7.1716 9.17-7.3478 14.867-0.14494 4.6858 1.3922 9.344 3.9468 13.275 2.5546 3.9308 6.091 7.1598 10.009 9.734 7.8361 5.1482 17.046 7.6785 25.896 10.776 5.0317 1.7611 9.9819 3.7486 14.854 5.9134-27.99 16.487-59.029 27.803-91.088 33.067 42.123 6.0798 84.953 7.2442 127.34 3.4642 29.301-2.6128 58.621-7.6451 85.991-18.426 27.37-10.781 52.823-27.597 70.808-50.875 14.755-19.098 24.165-42.282 26.897-66.261 2.7318-23.979-1.2226-48.682-11.304-70.61l12.991-17.325-18.191 8.6604 17.325-17.325-21.656 6.0623c-4.2174-11.601-12.662-21.608-23.388-27.718-7.4551-4.2465-15.998-6.5368-24.569-6.7344z" fill="#02baf6"/>
 </g>
</svg>
